<mxfile host="app.diagrams.net" modified="2023-08-23T14:57:17.914Z" agent="Mozilla/5.0 (Windows NT 10.0; Win64; x64) AppleWebKit/537.36 (KHTML, like Gecko) Chrome/114.0.0.0 YaBrowser/23.7.3.823 Yowser/2.5 Safari/537.36" etag="jkf34EjAGRVXWiCND6kJ" version="21.6.9" type="device">
  <diagram name="Страница — 1" id="0vV1UQF6ZuO9iQQqLmw6">
    <mxGraphModel dx="1002" dy="543" grid="1" gridSize="10" guides="1" tooltips="1" connect="1" arrows="1" fold="1" page="1" pageScale="1" pageWidth="827" pageHeight="1169" math="0" shadow="0">
      <root>
        <mxCell id="0" />
        <mxCell id="1" parent="0" />
        <mxCell id="lsbEZWjSC_Zeq_Gf7ecX-9" value="" style="edgeStyle=orthogonalEdgeStyle;rounded=0;orthogonalLoop=1;jettySize=auto;html=1;" edge="1" parent="1" source="lsbEZWjSC_Zeq_Gf7ecX-1" target="lsbEZWjSC_Zeq_Gf7ecX-3">
          <mxGeometry relative="1" as="geometry" />
        </mxCell>
        <mxCell id="lsbEZWjSC_Zeq_Gf7ecX-1" value="Start" style="ellipse;whiteSpace=wrap;html=1;" vertex="1" parent="1">
          <mxGeometry x="340" y="40" width="120" height="80" as="geometry" />
        </mxCell>
        <mxCell id="lsbEZWjSC_Zeq_Gf7ecX-2" value="string [] array1&lt;br&gt;string [] array2" style="shape=parallelogram;perimeter=parallelogramPerimeter;whiteSpace=wrap;html=1;fixedSize=1;" vertex="1" parent="1">
          <mxGeometry x="340" y="140" width="120" height="60" as="geometry" />
        </mxCell>
        <mxCell id="lsbEZWjSC_Zeq_Gf7ecX-11" style="edgeStyle=orthogonalEdgeStyle;rounded=0;orthogonalLoop=1;jettySize=auto;html=1;" edge="1" parent="1" source="lsbEZWjSC_Zeq_Gf7ecX-3" target="lsbEZWjSC_Zeq_Gf7ecX-4">
          <mxGeometry relative="1" as="geometry" />
        </mxCell>
        <mxCell id="lsbEZWjSC_Zeq_Gf7ecX-3" value="string [] array1&lt;br style=&quot;border-color: var(--border-color);&quot;&gt;string [] array2&lt;br&gt;n&amp;lt;=3&lt;br&gt;count = 0&lt;br&gt;i = 0" style="whiteSpace=wrap;html=1;aspect=fixed;" vertex="1" parent="1">
          <mxGeometry x="335" y="230" width="110" height="110" as="geometry" />
        </mxCell>
        <mxCell id="lsbEZWjSC_Zeq_Gf7ecX-12" value="" style="edgeStyle=orthogonalEdgeStyle;rounded=0;orthogonalLoop=1;jettySize=auto;html=1;" edge="1" parent="1" source="lsbEZWjSC_Zeq_Gf7ecX-4" target="lsbEZWjSC_Zeq_Gf7ecX-5">
          <mxGeometry relative="1" as="geometry" />
        </mxCell>
        <mxCell id="lsbEZWjSC_Zeq_Gf7ecX-17" style="edgeStyle=orthogonalEdgeStyle;rounded=0;orthogonalLoop=1;jettySize=auto;html=1;entryX=0;entryY=0.37;entryDx=0;entryDy=0;entryPerimeter=0;" edge="1" parent="1" source="lsbEZWjSC_Zeq_Gf7ecX-4" target="lsbEZWjSC_Zeq_Gf7ecX-14">
          <mxGeometry relative="1" as="geometry" />
        </mxCell>
        <mxCell id="lsbEZWjSC_Zeq_Gf7ecX-4" value="i&amp;lt;array.Length" style="rhombus;whiteSpace=wrap;html=1;" vertex="1" parent="1">
          <mxGeometry x="325" y="360" width="130" height="80" as="geometry" />
        </mxCell>
        <mxCell id="lsbEZWjSC_Zeq_Gf7ecX-13" value="" style="edgeStyle=orthogonalEdgeStyle;rounded=0;orthogonalLoop=1;jettySize=auto;html=1;" edge="1" parent="1" source="lsbEZWjSC_Zeq_Gf7ecX-5" target="lsbEZWjSC_Zeq_Gf7ecX-6">
          <mxGeometry relative="1" as="geometry" />
        </mxCell>
        <mxCell id="lsbEZWjSC_Zeq_Gf7ecX-5" value="array1[i].Length&amp;lt;=3" style="rhombus;whiteSpace=wrap;html=1;" vertex="1" parent="1">
          <mxGeometry x="320" y="460" width="140" height="80" as="geometry" />
        </mxCell>
        <mxCell id="lsbEZWjSC_Zeq_Gf7ecX-7" style="edgeStyle=orthogonalEdgeStyle;rounded=0;orthogonalLoop=1;jettySize=auto;html=1;exitX=0;exitY=0.25;exitDx=0;exitDy=0;entryX=0;entryY=0.5;entryDx=0;entryDy=0;" edge="1" parent="1" source="lsbEZWjSC_Zeq_Gf7ecX-6" target="lsbEZWjSC_Zeq_Gf7ecX-4">
          <mxGeometry relative="1" as="geometry">
            <mxPoint x="240" y="390" as="targetPoint" />
            <mxPoint x="250" y="590" as="sourcePoint" />
            <Array as="points">
              <mxPoint x="330" y="590" />
              <mxPoint x="230" y="590" />
              <mxPoint x="230" y="400" />
            </Array>
          </mxGeometry>
        </mxCell>
        <mxCell id="lsbEZWjSC_Zeq_Gf7ecX-6" value="i=i+1" style="rounded=0;whiteSpace=wrap;html=1;" vertex="1" parent="1">
          <mxGeometry x="330" y="570" width="120" height="60" as="geometry" />
        </mxCell>
        <mxCell id="lsbEZWjSC_Zeq_Gf7ecX-18" value="" style="edgeStyle=orthogonalEdgeStyle;rounded=0;orthogonalLoop=1;jettySize=auto;html=1;" edge="1" parent="1" source="lsbEZWjSC_Zeq_Gf7ecX-14" target="lsbEZWjSC_Zeq_Gf7ecX-16">
          <mxGeometry relative="1" as="geometry" />
        </mxCell>
        <mxCell id="lsbEZWjSC_Zeq_Gf7ecX-14" value="Print" style="shape=document;whiteSpace=wrap;html=1;boundedLbl=1;" vertex="1" parent="1">
          <mxGeometry x="510" y="370" width="120" height="80" as="geometry" />
        </mxCell>
        <mxCell id="lsbEZWjSC_Zeq_Gf7ecX-16" value="End" style="ellipse;whiteSpace=wrap;html=1;" vertex="1" parent="1">
          <mxGeometry x="670" y="370" width="120" height="80" as="geometry" />
        </mxCell>
      </root>
    </mxGraphModel>
  </diagram>
</mxfile>
